<svg xmlns="http://www.w3.org/2000/svg" xmlns:xlink="http://www.w3.org/1999/xlink" width="92" height="92" x="0" y="0" enable-background="new -3.1 -2.67 92 92" version="1.1" viewBox="-3.1 -2.67 92 92" xml:space="preserve"><g id="XMLID_1_"><g><path fill="#FFF" d="M43.33,1.5c23.11,0,41.839,18.73,41.839,41.83c0,23.1-18.729,41.83-41.839,41.83 c-23.1,0-41.83-18.73-41.83-41.83C1.5,20.23,20.23,1.5,43.33,1.5z"/></g><g><path fill="none" stroke="#186735" stroke-miterlimit="10" stroke-width="3" d="M85.169,43.33c0,23.1-18.729,41.83-41.839,41.83 c-23.1,0-41.83-18.73-41.83-41.83C1.5,20.23,20.23,1.5,43.33,1.5C66.44,1.5,85.169,20.23,85.169,43.33z"/></g></g><rect width="13.333" height="13.333" x="26.899" y="28.166" fill="none" stroke="#186735" stroke-miterlimit="10"/><rect width="13.334" height="13.333" x="40.232" y="40.966" fill="none" stroke="#186735" stroke-miterlimit="10"/><rect width="13.334" height="13.333" x="26.899" y="40.966" fill="#21572C" stroke="#186735" stroke-miterlimit="10"/><rect width="13.334" height="13.333" x="40.232" y="28.166" fill="#21572C" stroke="#186735" stroke-miterlimit="10"/><rect width="13.332" height="13.334" x="46.634" y="35.5" fill="#FFF" stroke="#186735" stroke-miterlimit="10"/><rect width="13.334" height="13.334" x="33.833" y="48.832" fill="#FFF" stroke="#186735" stroke-miterlimit="10"/><rect width="13.334" height="13.334" x="33.833" y="35.5" fill="#21572C" stroke="#186735" stroke-miterlimit="10"/><rect width="13.332" height="13.334" x="46.634" y="48.832" fill="#21572C" stroke="#186735" stroke-miterlimit="10"/><line x1="33.833" x2="26.899" y1="62.166" y2="54.299" fill="none" stroke="#186735" stroke-miterlimit="10"/><line x1="33.833" x2="26.899" y1="35.5" y2="28.166" fill="none" stroke="#186735" stroke-miterlimit="10"/><line x1="59.966" x2="53.566" y1="35.5" y2="28.166" fill="none" stroke="#186735" stroke-miterlimit="10"/></svg>